PathFileType	4	(X/Y/Z)	/Users/niels/Desktop/University/Third Semester/Perception and Action/Exam/Gymnastics Motion Tracking/Code for Gym Tracking/Analyzed Data/Start Salto/stsalto_bad_id1_1_Sports2D/stsalto_bad_id1_1_Sports2D_px_person00.trc
DataRate	CameraRate	NumFrames	NumMarkers	Units	OrigDataRate	OrigDataStartFrame	OrigNumFrames
29.774436090225564	29.774436090225564	8	22	m	29.774436090225564	16	133
Frame#	Time	Hip			RHip			RKnee			RAnkle			RBigToe			RSmallToe			RHeel			LHip			LKnee			LAnkle			LBigToe			LSmallToe			LHeel			Neck			Head			Nose			RShoulder			RElbow			RWrist			LShoulder			LElbow			LWrist		
		X1	Y1	Z1	X2	Y2	Z2	X3	Y3	Z3	X4	Y4	Z4	X5	Y5	Z5	X6	Y6	Z6	X7	Y7	Z7	X8	Y8	Z8	X9	Y9	Z9	X10	Y10	Z10	X11	Y11	Z11	X12	Y12	Z12	X13	Y13	Z13	X14	Y14	Z14	X15	Y15	Z15	X16	Y16	Z16	X17	Y17	Z17	X18	Y18	Z18	X19	Y19	Z19	X20	Y20	Z20	X21	Y21	Z21	X22	Y22	Z22
16	0.5373737373737374	0.5671967577354146	-0.5481857637162898	0.0	0.5626931286962903	-0.5467714319786506	0.0	0.6525572295155962	-0.6718216489580339	0.0	0.6623658492855006	-0.81564835344875	0.0	0.716847198606591	-0.8277152079045782	0.0	0.706305758375554	-0.8351274709805147	0.0	0.652224912531925	-0.833616853355727	0.0	0.5782015011805187	-0.5469583870751508	0.0	0.6599674736188135	-0.6641870627722811	0.0	0.6691670432791704	-0.8096714804773	0.0	0.7281193717161948	-0.8217785206337758	0.0	0.717979583624527	-0.8206531653599485	0.0	0.6578505906052602	-0.8292810383470807	0.0	0.639242040105182	-0.391154030006807	0.0	0.7187726180899018	-0.3318509602393866	0.0	0.6978374792956082	-0.3827049665907915	0.0	0.6205625484450944	-0.40035622135017684	0.0	0.5816127125412023	-0.4853417814785333	0.0	0.6596374235605756	-0.5278263478912469	0.0	0.622486011509795	-0.39920585067296827	0.0	0.57888867448379	-0.4797112794173059	0.0	0.6370830559871217	-0.5245905223087283	0.0
17	0.570959595959596	0.5991508135698229	-0.5529942219028608	0.0	0.59656380222567	-0.5516730584931083	0.0	0.6763363453415547	-0.6808994525269648	0.0	0.6715221254515169	-0.824180406605505	0.0	0.7205436206497048	-0.8382591947558601	0.0	0.7097024017847463	-0.8448511775652363	0.0	0.6597875433836117	-0.8409218971215661	0.0	0.6082946349913502	-0.551926528758384	0.0	0.6798927072727796	-0.6749192475038612	0.0	0.6756775323549394	-0.81835166874261	0.0	0.7305156269350198	-0.8328072862638422	0.0	0.7199807546593778	-0.8316139864812824	0.0	0.6621698678425767	-0.8359345459455959	0.0	0.6706896861826036	-0.3948521513684322	0.0	0.7525213286820001	-0.3389637267445422	0.0	0.728956158647424	-0.3892642428517629	0.0	0.6549166712054784	-0.40374949931459697	0.0	0.6159078795803085	-0.48536001404932566	0.0	0.6997883775725798	-0.5188022047585349	0.0	0.6523605574956571	-0.40033438350928646	0.0	0.6091298816079108	-0.47977861020782336	0.0	0.6752742279490046	-0.5169661669541441	0.0
18	0.6045454545454546	0.6268745371686585	-0.5532775876020904	0.0	0.6261931994526408	-0.552110885977481	0.0	0.6937173867523839	-0.6854318739905283	0.0	0.6759349415664702	-0.8279842802037478	0.0	0.7209508626208799	-0.8439343331663388	0.0	0.7096758483168791	-0.8499431358282726	0.0	0.6627104092211166	-0.8441369477129317	0.0	0.6341473265151376	-0.5524733527185185	0.0	0.6928951188635959	-0.6814213300359188	0.0	0.6766414593536713	-0.82269331335867	0.0	0.728518877687666	-0.8394410717870756	0.0	0.717936476156947	-0.8380837149259194	0.0	0.661559148889404	-0.8387612866822729	0.0	0.701627536952876	-0.39571894903734955	0.0	0.7861090056828777	-0.34503203267929183	0.0	0.7594794056017228	-0.3942905037691672	0.0	0.6876702166062905	-0.4037799757351822	0.0	0.6454822660134557	-0.4805556334112399	0.0	0.7311021142782783	-0.5088745766949425	0.0	0.6826579503320134	-0.3992692900882457	0.0	0.6384037108758449	-0.47607844879087313	0.0	0.7092130097860397	-0.508326146314861	0.0
19	0.6381313131313131	0.6508836405517476	-0.5486975712042574	0.0	0.6517667910500695	-0.5477514896052217	0.0	0.7055553222011213	-0.6848706945654788	0.0	0.6776067795508752	-0.8268330894518535	0.0	0.7202970384372825	-0.8450604784397098	0.0	0.7083678273069638	-0.8507509940870147	0.0	0.6629438195376292	-0.8430745261617015	0.0	0.656682226447676	-0.5481731419626504	0.0	0.7007048980808115	-0.682592404885814	0.0	0.6752023601828394	-0.8220024366466473	0.0	0.7253545542070015	-0.8413866595224053	0.0	0.7152134430885433	-0.8395937473155294	0.0	0.6590377858054997	-0.8372667273526724	0.0	0.7329174147767911	-0.39428304423488336	0.0	0.8204585037415442	-0.35066010282622007	0.0	0.7901923559616139	-0.39812717529669506	0.0	0.7197763687060909	-0.4010011910654287	0.0	0.6716652882835644	-0.47168817882424346	0.0	0.755142741145168	-0.4996174821702468	0.0	0.7140220967063559	-0.39627417980617446	0.0	0.6668718973070397	-0.4686151490531992	0.0	0.7390047454738918	-0.49973822268957674	0.0
20	0.6717171717171717	0.6715397310264584	-0.5396202212708072	0.0	0.6735213337293995	-0.538984568200559	0.0	0.7131178637634087	-0.6793569176987356	0.0	0.6782098516447463	-0.8211433515455026	0.0	0.7198589372859456	-0.842566458385462	0.0	0.707142410939219	-0.8480933789710127	0.0	0.6622561939816896	-0.8379342760992464	0.0	0.6764397012381138	-0.5393543317996241	0.0	0.7051615598250377	-0.6782581020810997	0.0	0.6736195268986059	-0.8164594118925378	0.0	0.7230807810328026	-0.8391088964033244	0.0	0.7136343187446533	-0.8365701848761301	0.0	0.6565776845848975	-0.8315139400757194	0.0	0.7644932883759292	-0.39159741419816485	0.0	0.8554169459075204	-0.3566300274074138	0.0	0.8209375351072251	-0.4013767438994881	0.0	0.7514129720858564	-0.396494994918216	0.0	0.6955558211515436	-0.46006138412927894	0.0	0.7738396335145294	-0.49205872947564766	0.0	0.7461085823639162	-0.3919502088572635	0.0	0.6942858046316981	-0.4581917261798533	0.0	0.7648705801559637	-0.492093630181519	0.0
21	0.7053030303030303	0.6891366021208378	-0.5270196281509543	0.0	0.6917810516166468	-0.5267678814720766	0.0	0.7176837759094009	-0.6697521239392505	0.0	0.6789215511643389	-0.8117775198518876	0.0	0.7203460877612526	-0.8376142077843649	0.0	0.7069105601871376	-0.842925147482839	0.0	0.662060497972377	-0.8291815154012688	0.0	0.693576705705281	-0.5270125352220277	0.0	0.7078487609339045	-0.6691411544027096	0.0	0.673244858346861	-0.8068847930851079	0.0	0.7226921634217339	-0.8335354357423161	0.0	0.7138588533805215	-0.830104104730299	0.0	0.6553862064961218	-0.821988586082515	0.0	0.7955666048306133	-0.38882138633750774	0.0	0.8897502728455589	-0.36359702619618145	0.0	0.8508010621198717	-0.4046845683680393	0.0	0.7820360709747065	-0.39150288063500943	0.0	0.717851663166106	-0.4471865065027236	0.0	0.7888224303614984	-0.486635807440688	0.0	0.7779106457375082	-0.38722401227656433	0.0	0.7201807700958224	-0.44630816887144953	0.0	0.7868328056888283	-0.48612355354972614	0.0
22	0.7388888888888889	0.7043056334262268	-0.5121608815402758	0.0	0.7072501737081464	-0.5122753365894979	0.0	0.7204609757110391	-0.6573032753755543	0.0	0.6803723971108375	-0.7996622509011081	0.0	0.7219725580409989	-0.8311313157151778	0.0	0.7080495733873983	-0.8359916345050653	0.0	0.6631618996888591	-0.8173108755488466	0.0	0.7084279792629383	-0.5124127736210413	0.0	0.710038406484019	-0.6565638281717445	0.0	0.6746073508507564	-0.7942955296632358	0.0	0.7241224865885489	-0.8257428674057115	0.0	0.7157494903476753	-0.821529424619445	0.0	0.6560387994976585	-0.80934223153022	0.0	0.8254169846807815	-0.3868112368237555	0.0	0.9220945890234179	-0.37193249129819106	0.0	0.8788483411085404	-0.40853962684970946	0.0	0.8111188276519712	-0.3870338983224742	0.0	0.739139546393165	-0.43427524773931436	0.0	0.8013159149286109	-0.4831482442319375	0.0	0.8085418112784406	-0.3829967975070392	0.0	0.744397175522167	-0.4343987799280871	0.0	0.8050218421524168	-0.48200795550935627	0.0
23	0.7724747474747475	0.7179373191029789	-0.49622380975178493	0.0	0.7208587886447191	-0.4965686376652186	0.0	0.7225665893519037	-0.6431399462325111	0.0	0.6827085457302847	-0.7855599430063837	0.0	0.7243363473821247	-0.823533447465751	0.0	0.7102469262010657	-0.8276647378777067	0.0	0.6656098686904812	-0.8027927677382205	0.0	0.7216482062781828	-0.4966505247631986	0.0	0.7126814106992206	-0.6419432995412961	0.0	0.6775495086014598	-0.7796111398430218	0.0	0.7264407153316323	-0.816660827877157	0.0	0.7186133914971184	-0.8119658302026349	0.0	0.6584912903386264	-0.7942818334883025	0.0	0.8536169123736942	-0.3859125464856261	0.0	0.9515165446842422	-0.38171146743770556	0.0	0.9043614111627654	-0.41317313240635606	0.0	0.8384361767031946	-0.3836176932972712	0.0	0.7599434428420099	-0.4220464345776281	0.0	0.8121115273125664	-0.4809286100111315	0.0	0.837458456565356	-0.37979479218495116	0.0	0.7671244594080208	-0.4232502002982493	0.0	0.819714489829205	-0.4792015858807084	0.0
